# xmcd
#
# Track frame offsets:
#	150
#	4396
#	15610
#	30233
#	37509
#	48021
#	51097
#	60506
#	63556
#	65496
#	73839
#	86633
#	98198
#	109963
#	115383
#	129325
#	141839
#	145737
#	157326
#	162366
#	169686
#	183095
#	188453
#	197928
#	207880
#	217626
#	228778
#	235708
#	246489
#	251624
#	261193
#	263497
#	272721
#	280732
#	287307
#	303319
#	315725
#	328969
#	336914
#	346252
#	356119
#
# Disc length: 4786 seconds
#
# Revision: 0
# Processed by: cddbd v1.5.1PL0 Copyright (c) Steve Scherf et al.
# Submitted via: audiograbber 1.83.01
#
DISCID=5312b029
DTITLE=Ol' Dirty Bastard - Legend of the Drunken Master - The Best of O.D.B.
DYEAR=2004
DGENRE=Hip-Hop
TTITLE0=Intro
TTITLE1=Shimmy Shimmy Ya (G. Brown Remix)
TTITLE2=Brooklyn Zoo (G. Brown Remix)
TTITLE3=Show and Prove feat. Big Daddy Kane and Jay-Z
TTITLE4=Danger pt. 2 feat. Blahzay Blahzay (G. Brown Remix)
TTITLE5=Harlem World
TTITLE6=Dog Shit
TTITLE7=Bitches feat. ICP
TTITLE8=Goin Down
TTITLE9=Black Widow pt. 2
TTITLE10=Don't You Know pt. 2
TTITLE11=Drug Free feat. Deadly Venoms and Shorty Shit Stain
TTITLE12=Diesel feat. Raekwon, Method Man, and RZA
TTITLE13=Baby C'mon
TTITLE14=7th Chamber feat. Wu Tang Clan
TTITLE15=When You Hear That feat. Beanie Siegel (G. Brown Remix)
TTITLE16=Anything Remix feat. Method Man, U-God, and SWV
TTITLE17=For The Love of Money feat. Mac 10 and Buckshot
TTITLE18=Fantasy Remix feat. Mariah Carey
TTITLE19=Ghetto Superstar feat. Mya and Pras (G. Brown Remix)
TTITLE20=Protect Ya Neck feat. Wu Tang Clan
TTITLE21=Nuttin But Flavor feat. Funkmaster Flex
TTITLE22=Shame on a Nigga feat. Wu Tang Clan
TTITLE23=Do Re Wu feat. RZA and Killa Beez
TTITLE24=Got Your Money feat. Kelis (G. Brown Remix)
TTITLE25=Old Man feat. Masta Killa and RZA
TTITLE26=Sucka MC's feat. Method Man and RZA
TTITLE27=Da Mystery of Chessboxing feat. Wu Tang Clan (G. Brown Remix)
TTITLE28=Fast Shadow feat. Method Man
TTITLE29=Flash Light feat. George Clinton, Q-Tip, and Busta Rhymes
TTITLE30=ODB - Rick James Interlude
TTITLE31=Cold Blooded
TTITLE32=Don't Go Breaking My Heart feat. Macy Gray (Unreleased)
TTITLE33=Dirty The Moocher feat. Cab Calloway
TTITLE34=Woo Ha Remix feat. Busta Rhymes
TTITLE35=Reunited Remix feat. GZA (Unreleased Version)
TTITLE36=Hip-Hop Drunkies feat. Alkaholiks (G. Brown Remix)
TTITLE37=Lift Ya Skirt (Unreleased)
TTITLE38=The Park feat. Coolio
TTITLE39=Classic Freestyle (BBC London - 1997)
TTITLE40=Hidden Track
EXTD=
EXTT0=
EXTT1=
EXTT2=
EXTT3=
EXTT4=
EXTT5=
EXTT6=
EXTT7=
EXTT8=
EXTT9=
EXTT10=
EXTT11=
EXTT12=
EXTT13=
EXTT14=
EXTT15=
EXTT16=
EXTT17=
EXTT18=
EXTT19=
EXTT20=
EXTT21=
EXTT22=
EXTT23=
EXTT24=
EXTT25=
EXTT26=
EXTT27=
EXTT28=
EXTT29=
EXTT30=
EXTT31=
EXTT32=
EXTT33=
EXTT34=
EXTT35=
EXTT36=
EXTT37=
EXTT38=
EXTT39=
EXTT40=
PLAYORDER=
